<svg width="128.5874755859375px" height="122px" xmlns="http://www.w3.org/2000/svg" viewBox="185.70626220703124 14 128.5874755859375 122" style="background: rgba(0, 0, 0, 0);" preserveAspectRatio="xMidYMid"><defs><filter id="editing-offset"><feFlood flood-color="#f00" flood-opacity="0.5" result="c1"></feFlood><feFlood flood-color="#0f0" flood-opacity="0.5" result="c2"></feFlood><feFlood flood-color="#00f" flood-opacity="0.5" result="c3"></feFlood><feComposite operator="in" in="c1" in2="SourceAlpha" result="text-c1"></feComposite><feComposite operator="in" in="c2" in2="SourceAlpha" result="text-c2"></feComposite><feComposite operator="in" in="c3" in2="SourceAlpha" result="text-c3"></feComposite><feOffset in="text-c1" dx="-10" dy="0" result="text1"></feOffset><feOffset in="text-c2" dx="10" dy="0" result="text2"></feOffset><feOffset in="text-c3" dx="0" dy="0" result="text3"></feOffset><feMerge><feMergeNode in="text1"></feMergeNode><feMergeNode in="text2"></feMergeNode><feMergeNode in="text3"></feMergeNode></feMerge></filter></defs><g filter="url(#editing-offset)"><g transform="translate(211.04124906659126, 97.14999961853027)"><path d="M26.11-42.69L26.11-42.69L26.11-42.69Q41.79-42.69 41.79-31.62L41.79-31.62L41.79-31.62Q41.79-25.54 37.89-21.89L37.89-21.89L37.89-21.89Q34.05-18.24 27.33-18.24L27.33-18.24L27.33-18.24Q24.19-18.24 21.76-20.03L21.76-20.03L21.76-20.03Q20.61-20.80 19.84-21.82L19.84-21.82L19.84-21.82Q24.51-21.82 26.98-24.67L26.98-24.67L26.98-24.67Q29.44-27.52 29.44-33.09L29.44-33.09L29.44-33.09Q29.44-38.66 23.94-38.66L23.94-38.66L22.40-38.66L22.40-38.66Q22.02-38.66 21.70-38.59L21.70-38.59L14.34 0L0.45 0L8.32-41.92L8.32-41.92Q15.17-42.56 19.14-42.62L19.14-42.62L19.14-42.62Q23.10-42.69 26.11-42.69ZM67.07-29.57L67.07-29.57L67.07-29.57Q68.03-31.49 68.03-33.28L68.03-33.28L68.03-33.28Q68.03-35.07 67.84-36.06L67.84-36.06L67.84-36.06Q67.65-37.06 67.20-37.82L67.20-37.82L67.20-37.82Q66.24-39.49 64.32-39.49L64.32-39.49L64.32-39.49Q61.95-39.49 60.03-37.76L60.03-37.76L60.03-37.76Q57.98-35.97 57.98-33.15L57.98-33.15L57.98-33.15Q57.98-31.36 59.23-29.98L59.23-29.98L59.23-29.98Q60.48-28.61 62.40-27.33L62.40-27.33L62.40-27.33Q64.32-26.05 66.50-24.77L66.50-24.77L66.50-24.77Q68.67-23.49 70.59-21.95L70.59-21.95L70.59-21.95Q75.01-18.43 75.01-13.70L75.01-13.70L75.01-13.70Q75.01-10.50 73.31-7.78L73.31-7.78L73.31-7.78Q71.62-5.06 68.80-3.07L68.80-3.07L68.80-3.07Q62.66 1.28 54.53 1.28L54.53 1.28L54.53 1.28Q47.94 1.28 44.54-0.86L44.54-0.86L44.54-0.86Q41.15-3.01 41.15-6.27L41.15-6.27L41.15-6.27Q41.15-12.10 45.70-13.57L45.70-13.57L45.70-13.57Q46.98-14.02 48.93-14.02L48.93-14.02L48.93-14.02Q50.88-14.02 53.12-13.18L53.12-13.18L53.12-13.18Q52.10-10.56 52.10-8.19L52.10-8.19L52.10-8.19Q52.10-3.07 55.74-3.07L55.74-3.07L55.74-3.07Q58.11-3.07 60.06-4.80L60.06-4.80L60.06-4.80Q62.02-6.53 62.02-8.48L62.02-8.48L62.02-8.48Q62.02-10.43 60.77-11.84L60.77-11.84L60.77-11.84Q59.52-13.25 57.66-14.37L57.66-14.37L57.66-14.37Q55.81-15.49 53.66-16.58L53.66-16.58L53.66-16.58Q51.52-17.66 49.66-19.20L49.66-19.20L49.66-19.20Q45.31-22.72 45.31-28.35L45.31-28.35L45.31-28.35Q45.31-32 47.10-34.85L47.10-34.85L47.10-34.85Q48.90-37.70 51.78-39.62L51.78-39.62L51.78-39.62Q57.54-43.52 64.61-43.52L64.61-43.52L64.61-43.52Q71.68-43.52 75.10-41.41L75.10-41.41L75.10-41.41Q78.53-39.30 78.53-35.71L78.53-35.71L78.53-35.71Q78.53-32.58 76.10-30.59L76.10-30.59L76.10-30.59Q73.98-28.93 71.42-28.93L71.42-28.93L71.42-28.93Q68.86-28.93 67.07-29.57Z"></path></g></g><style>text {
  font-size: 64px;
  font-family: Arial Black;
  dominant-baseline: central;
  text-anchor: middle;
}</style></svg>